<svg width="66" height="66" viewBox="0 0 66 66" fill="none" xmlns="http://www.w3.org/2000/svg">
<path d="M33 49.5C29.7366 49.5 26.5465 48.5323 23.8331 46.7193C21.1197 44.9062 19.0048 42.3293 17.756 39.3143C16.5071 36.2993 16.1804 32.9817 16.8171 29.781C17.4537 26.5803 19.0252 23.6403 21.3327 21.3327C23.6403 19.0252 26.5803 17.4537 29.781 16.8171C32.9817 16.1804 36.2993 16.5071 39.3143 17.756C42.3293 19.0048 44.9062 21.1197 46.7193 23.8331C48.5323 26.5465 49.5 29.7366 49.5 33C49.4945 37.3744 47.7544 41.5681 44.6612 44.6612C41.5681 47.7544 37.3744 49.4945 33 49.5ZM33 20.625C30.5525 20.625 28.1599 21.3508 26.1248 22.7106C24.0898 24.0704 22.5036 26.0031 21.567 28.2643C20.6304 30.5255 20.3853 33.0137 20.8628 35.4142C21.3403 37.8148 22.5189 40.0198 24.2496 41.7505C25.9802 43.4811 28.1852 44.6597 30.5858 45.1372C32.9863 45.6147 35.4745 45.3697 37.7357 44.433C39.997 43.4964 41.9297 41.9102 43.2894 39.8752C44.6492 37.8401 45.375 35.4476 45.375 33C45.3712 29.7191 44.0662 26.5737 41.7462 24.2538C39.4263 21.9338 36.2809 20.6288 33 20.625Z" fill="#EC683E" fill-opacity="0.8"/>
<path d="M33 37.125C35.2782 37.125 37.125 35.2782 37.125 33C37.125 30.7218 35.2782 28.875 33 28.875C30.7218 28.875 28.875 30.7218 28.875 33C28.875 35.2782 30.7218 37.125 33 37.125Z" fill="#EC683E" fill-opacity="0.8"/>
<path d="M33 12.375C35.2782 12.375 37.125 10.5282 37.125 8.25C37.125 5.97183 35.2782 4.125 33 4.125C30.7218 4.125 28.875 5.97183 28.875 8.25C28.875 10.5282 30.7218 12.375 33 12.375Z" fill="#EC683E" fill-opacity="0.8"/>
<path d="M33 61.875C35.2782 61.875 37.125 60.0282 37.125 57.75C37.125 55.4718 35.2782 53.625 33 53.625C30.7218 53.625 28.875 55.4718 28.875 57.75C28.875 60.0282 30.7218 61.875 33 61.875Z" fill="#EC683E" fill-opacity="0.8"/>
<path d="M57.75 37.125C60.0282 37.125 61.875 35.2782 61.875 33C61.875 30.7218 60.0282 28.875 57.75 28.875C55.4718 28.875 53.625 30.7218 53.625 33C53.625 35.2782 55.4718 37.125 57.75 37.125Z" fill="#EC683E" fill-opacity="0.8"/>
<path d="M8.25 37.125C10.5282 37.125 12.375 35.2782 12.375 33C12.375 30.7218 10.5282 28.875 8.25 28.875C5.97183 28.875 4.125 30.7218 4.125 33C4.125 35.2782 5.97183 37.125 8.25 37.125Z" fill="#EC683E" fill-opacity="0.8"/>
<path d="M15.4997 19.6247C17.7779 19.6247 19.6247 17.7779 19.6247 15.4997C19.6247 13.2215 17.7779 11.3747 15.4997 11.3747C13.2215 11.3747 11.3747 13.2215 11.3747 15.4997C11.3747 17.7779 13.2215 19.6247 15.4997 19.6247Z" fill="#EC683E" fill-opacity="0.8"/>
<path d="M50.5003 54.6253C52.7785 54.6253 54.6253 52.7785 54.6253 50.5003C54.6253 48.2221 52.7785 46.3753 50.5003 46.3753C48.2221 46.3753 46.3753 48.2221 46.3753 50.5003C46.3753 52.7785 48.2221 54.6253 50.5003 54.6253Z" fill="#EC683E" fill-opacity="0.8"/>
<path d="M50.5003 19.6247C52.7785 19.6247 54.6253 17.7779 54.6253 15.4997C54.6253 13.2215 52.7785 11.3747 50.5003 11.3747C48.2221 11.3747 46.3753 13.2215 46.3753 15.4997C46.3753 17.7779 48.2221 19.6247 50.5003 19.6247Z" fill="#EC683E" fill-opacity="0.8"/>
<path d="M15.4997 54.6253C17.7779 54.6253 19.6247 52.7785 19.6247 50.5003C19.6247 48.2221 17.7779 46.3753 15.4997 46.3753C13.2215 46.3753 11.3747 48.2221 11.3747 50.5003C11.3747 52.7785 13.2215 54.6253 15.4997 54.6253Z" fill="#EC683E" fill-opacity="0.8"/>
</svg>
