<svg width="31" height="27" viewBox="0 0 31 27" fill="none" xmlns="http://www.w3.org/2000/svg">
<path fill-rule="evenodd" clip-rule="evenodd" d="M5.00082 0H10.0017V15.6063C10.0706 15.6066 10.1395 15.6075 10.2084 15.6093C10.7837 15.5804 11.3505 15.4485 11.8838 15.2187C12.4916 14.9568 13.0438 14.573 13.509 14.0891C13.9742 13.6051 14.3431 13.0307 14.5949 12.3984C14.8417 11.7787 14.9629 11.1154 14.9676 10.4449V0H19.9685V10.451H19.9682C19.9624 11.8014 19.7039 13.1378 19.207 14.3857C18.7044 15.648 17.9676 16.7949 17.039 17.7611C16.891 17.9149 16.7387 18.0637 16.5822 18.2073C16.7387 18.3508 16.891 18.4996 17.039 18.6535C17.9676 19.6196 18.7044 20.7666 19.207 22.0289C19.7097 23.2911 19.9683 24.6441 19.9683 26.0104H14.9675C14.9675 25.3272 14.8381 24.6508 14.5868 24.0197C14.3355 23.3886 13.9672 22.815 13.5028 22.332C13.0384 21.8489 12.4871 21.4657 11.8804 21.2043C11.2844 20.9476 10.6465 20.8131 10.0017 20.8085V26.0104H5.00082V0ZM27.5046 10.4042C28.8855 10.4042 30.005 9.23964 30.005 7.80312C30.005 6.36661 28.8855 5.20208 27.5046 5.20208C26.1236 5.20208 25.0042 6.36661 25.0042 7.80312C25.0042 9.23964 26.1236 10.4042 27.5046 10.4042ZM30.005 10.4042V15.6062H25.0042L30.005 10.4042Z" fill="white"/>
</svg>
